<?xml version="1.0" encoding="UTF-8"?>
<svg version="1.1" xmlns="http://www.w3.org/2000/svg" width="300" height="200">
<path d="M0 0 C99 0 198 0 300 0 C300 66 300 132 300 200 C201 200 102 200 0 200 C0 134 0 68 0 0 Z " fill="#A4FEB6" transform="translate(0,0)"/>
<path d="M0 0 C2.49939773 0.83558358 4.97917419 1.71488219 7.45767212 2.61056519 C8.39386887 2.94305267 9.33006561 3.27554016 10.29463196 3.61810303 C13.36831697 4.7118243 16.43842431 5.8152213 19.50845337 6.91915894 C21.6582133 7.68721717 23.80811768 8.45487119 25.9581604 9.22213745 C32.58296708 11.58957722 39.20233876 13.97197355 45.82095337 16.35665894 C47.86831342 17.09332156 49.91567661 17.82997545 51.96304321 18.56661987 C71.55533742 25.62157389 91.12190088 32.72706403 110.52017212 40.30197144 C113.96804071 41.64775441 117.42544927 42.95668411 120.90298462 44.22384644 C121.66965454 44.5040564 122.43632446 44.78426636 123.22622681 45.07296753 C125.19447435 45.7880054 127.16576387 46.49465562 129.13735962 47.20040894 C131.82095337 48.35665894 131.82095337 48.35665894 132.82095337 50.35665894 C117.95315834 56.34408588 103.07552206 62.30662287 88.13345337 68.10665894 C87.03662231 68.53640015 85.93979126 68.96614136 84.8097229 69.40890503 C83.79893677 69.79900757 82.78815063 70.18911011 81.74673462 70.59103394 C80.86412964 70.93360229 79.98152466 71.27617065 79.07217407 71.62911987 C76.82095337 72.35665894 76.82095337 72.35665894 73.82095337 72.35665894 C73.82095337 81.26665894 73.82095337 90.17665894 73.82095337 99.35665894 C71.36271118 100.27704956 68.90446899 101.19744019 66.37173462 102.14572144 C63.8594238 103.08677627 61.34719701 104.02805506 58.83499146 104.96939087 C57.03676669 105.64318685 55.23850832 106.31689319 53.44021606 106.99050903 C43.30858871 110.78628837 33.18124939 114.59278598 23.06704712 118.43478394 C22.21794266 118.75712006 21.3688382 119.07945618 20.4940033 119.41156006 C16.42909418 120.95495005 12.36515571 122.50082038 8.30264282 124.05050659 C6.83482039 124.60837175 5.36696727 125.1661562 3.89907837 125.72384644 C3.23730087 125.97732849 2.57552338 126.23081055 1.89369202 126.49197388 C-6.83355563 129.80086254 -6.83355563 129.80086254 -12.50595093 127.26119995 C-13.24369751 126.92145142 -13.98144409 126.58170288 -14.74154663 126.23165894 C-24.15056649 122.084654 -33.72181893 118.47026193 -43.36654663 114.91915894 C-44.88861301 114.35750617 -46.41066706 113.79582001 -47.93270874 113.23410034 C-50.92722224 112.12981204 -53.92233259 111.02716052 -56.91781616 109.92550659 C-63.05247928 107.66840866 -69.17995335 105.39228919 -75.30404663 103.10665894 C-76.30460083 102.73613403 -77.30515503 102.36560913 -78.33602905 101.9838562 C-79.23555298 101.64797485 -80.1350769 101.31209351 -81.06185913 100.96603394 C-81.83932495 100.67696167 -82.61679077 100.3878894 -83.41781616 100.09005737 C-85.17904663 99.35665894 -85.17904663 99.35665894 -86.17904663 98.35665894 C-86.26605005 96.72193012 -86.28605726 95.08351839 -86.27670288 93.44650269 C-86.27348022 92.45714722 -86.27025757 91.46779175 -86.26693726 90.44845581 C-86.2543689 88.88707886 -86.2543689 88.88707886 -86.24154663 87.29415894 C-86.23703491 86.24937378 -86.23252319 85.20458862 -86.22787476 84.12814331 C-86.21604574 81.53758958 -86.19872497 78.94716148 -86.17904663 76.35665894 C-77.758863 72.79014528 -69.12631825 69.95926425 -60.43295288 67.15353394 C-58.92979895 66.66617937 -57.42670241 66.17864775 -55.92366028 65.69094849 C-52.79541693 64.67682704 -49.66635909 63.66526978 -46.53671265 62.65548706 C-42.52457305 61.36066717 -38.51479819 60.05868603 -34.50561619 58.75474167 C-31.41231063 57.74966574 -28.31769297 56.74868122 -25.2226696 55.748909 C-23.74264032 55.27020561 -22.26304864 54.7901471 -20.78390694 54.30870819 C-18.72497872 53.63915707 -16.66432488 52.97521378 -14.6031189 52.31271362 C-13.43193008 51.93395081 -12.26074127 51.55518799 -11.05406189 51.16494751 C-8.17904663 50.35665894 -8.17904663 50.35665894 -5.17904663 50.35665894 C-5.01227381 46.9400987 -5.01227381 46.9400987 -5.17904663 43.35665894 C-7.08469227 41.02079668 -7.08469227 41.02079668 -10.3531189 41.08956909 C-14.42668657 41.3739468 -17.55452861 42.25502108 -21.39389038 43.63009644 C-22.07430389 43.86942398 -22.75471741 44.10875153 -23.45574951 44.35533142 C-24.91822076 44.87046404 -26.37906229 45.39024296 -27.83837891 45.91424561 C-31.73786074 47.31339124 -35.64989911 48.6764622 -39.56185913 50.04025269 C-40.3606398 50.31940018 -41.15942047 50.59854767 -41.98240662 50.88615417 C-51.36398836 54.14650742 -60.84574213 57.07323781 -70.34481812 59.9694519 C-77.69111764 62.2211206 -84.87791217 64.6602308 -92.04696655 67.42330933 C-101.48268859 70.2351236 -105.43634249 66.53210357 -115.17904663 62.35665894 C-115.17904663 76.54665894 -115.17904663 90.73665894 -115.17904663 105.35665894 C-113.85904663 106.01665894 -112.53904663 106.67665894 -111.17904663 107.35665894 C-108.70114264 109.83456292 -108.20686484 111.00197682 -107.92904663 114.54415894 C-108.17904663 117.35665894 -108.17904663 117.35665894 -109.17904663 118.35665894 C-109.42961031 121.27990186 -109.19281729 123.31626502 -108.24154663 126.10665894 C-105.38002134 134.85955983 -106.09713211 144.26414696 -106.17904663 153.35665894 C-115.74904663 153.35665894 -125.31904663 153.35665894 -135.17904663 153.35665894 C-135.17904663 144.35868459 -135.17904663 144.35868459 -134.55795288 140.66525269 C-134.42711304 139.8653894 -134.29627319 139.06552612 -134.16146851 138.24142456 C-134.02289429 137.4338269 -133.88432007 136.62622925 -133.74154663 135.79415894 C-133.4715846 134.16792831 -133.20204633 132.54162727 -132.93295288 130.91525269 C-132.80453003 130.14012329 -132.67610718 129.3649939 -132.54379272 128.56637573 C-131.58154781 122.73687193 -131.15091427 117.56558293 -131.63217163 111.68869019 C-131.48264038 110.91911987 -131.33310913 110.14954956 -131.17904663 109.35665894 C-130.35477173 108.86866821 -129.53049683 108.38067749 -128.6812439 107.87789917 C-125.32720078 104.49833012 -125.61071026 102.3551341 -125.61256409 97.73757935 C-125.63837051 96.73015686 -125.66417694 95.72273438 -125.69076538 94.68478394 C-125.69784012 93.64722961 -125.70491486 92.60967529 -125.71220398 91.54067993 C-125.74018022 88.22860445 -125.80292734 84.91822294 -125.86654663 81.60665894 C-125.8916252 79.36058961 -125.91443914 77.11449377 -125.93490601 74.86837769 C-125.98576597 69.36329476 -126.08361729 63.86187134 -126.17904663 58.35665894 C-132.44904663 55.71665894 -138.71904663 53.07665894 -145.17904663 50.35665894 C-143.71824906 47.43506379 -141.84993046 47.31454807 -138.80795288 46.21994019 C-137.67422241 45.80679565 -136.54049194 45.39365112 -135.37240601 44.96798706 C-134.17422241 44.53937378 -132.97603882 44.1107605 -131.74154663 43.66915894 C-124.13494551 40.92004584 -116.55932358 38.12954514 -109.03451538 35.16525269 C-97.06048113 30.46569096 -84.94364458 26.15445196 -72.84234619 21.79612732 C-69.61081418 20.63162637 -66.38027392 19.46438204 -63.14974976 18.29708862 C-62.50932236 18.06568302 -61.86889496 17.83427742 -61.20906067 17.59585953 C-59.92435159 17.13163754 -58.63964799 16.66740041 -57.35494995 16.20314789 C-55.45783916 15.51766674 -53.5606391 14.83243316 -51.66342163 14.14724731 C-41.9943766 10.65434339 -32.33178056 7.14437931 -22.67904663 3.60665894 C-21.49020874 3.17192261 -20.30137085 2.73718628 -19.07650757 2.28927612 C-18.02753296 1.9041687 -16.97855835 1.51906128 -15.89779663 1.12228394 C-15.0205896 0.80034058 -14.14338257 0.47839722 -13.23959351 0.146698 C-8.30045682 -1.74702787 -5.10678442 -1.50772548 0 0 Z " fill="#1A361E" transform="translate(158.17904663085938,15.643341064453125)"/>
<path d="M0 0 C2.49939773 0.83558358 4.97917419 1.71488219 7.45767212 2.61056519 C8.39386887 2.94305267 9.33006561 3.27554016 10.29463196 3.61810303 C13.36831697 4.7118243 16.43842431 5.8152213 19.50845337 6.91915894 C21.6582133 7.68721717 23.80811768 8.45487119 25.9581604 9.22213745 C32.58296708 11.58957722 39.20233876 13.97197355 45.82095337 16.35665894 C47.86831342 17.09332156 49.91567661 17.82997545 51.96304321 18.56661987 C71.55533742 25.62157389 91.12190088 32.72706403 110.52017212 40.30197144 C113.96804071 41.64775441 117.42544927 42.95668411 120.90298462 44.22384644 C121.66965454 44.5040564 122.43632446 44.78426636 123.22622681 45.07296753 C125.19447435 45.7880054 127.16576387 46.49465562 129.13735962 47.20040894 C131.82095337 48.35665894 131.82095337 48.35665894 132.82095337 50.35665894 C117.95315834 56.34408588 103.07552206 62.30662287 88.13345337 68.10665894 C87.03662231 68.53640015 85.93979126 68.96614136 84.8097229 69.40890503 C83.79893677 69.79900757 82.78815063 70.18911011 81.74673462 70.59103394 C80.86412964 70.93360229 79.98152466 71.27617065 79.07217407 71.62911987 C76.82095337 72.35665894 76.82095337 72.35665894 73.82095337 72.35665894 C73.82095337 81.26665894 73.82095337 90.17665894 73.82095337 99.35665894 C71.36271118 100.27704956 68.90446899 101.19744019 66.37173462 102.14572144 C63.8594238 103.08677627 61.34719701 104.02805506 58.83499146 104.96939087 C57.03676669 105.64318685 55.23850832 106.31689319 53.44021606 106.99050903 C43.30858871 110.78628837 33.18124939 114.59278598 23.06704712 118.43478394 C22.21794266 118.75712006 21.3688382 119.07945618 20.4940033 119.41156006 C16.42909418 120.95495005 12.36515571 122.50082038 8.30264282 124.05050659 C6.83482039 124.60837175 5.36696727 125.1661562 3.89907837 125.72384644 C3.23730087 125.97732849 2.57552338 126.23081055 1.89369202 126.49197388 C-6.83355563 129.80086254 -6.83355563 129.80086254 -12.50595093 127.26119995 C-13.24369751 126.92145142 -13.98144409 126.58170288 -14.74154663 126.23165894 C-24.15056649 122.084654 -33.72181893 118.47026193 -43.36654663 114.91915894 C-44.88861301 114.35750617 -46.41066706 113.79582001 -47.93270874 113.23410034 C-50.92722224 112.12981204 -53.92233259 111.02716052 -56.91781616 109.92550659 C-63.05247928 107.66840866 -69.17995335 105.39228919 -75.30404663 103.10665894 C-76.30460083 102.73613403 -77.30515503 102.36560913 -78.33602905 101.9838562 C-79.23555298 101.64797485 -80.1350769 101.31209351 -81.06185913 100.96603394 C-81.83932495 100.67696167 -82.61679077 100.3878894 -83.41781616 100.09005737 C-85.17904663 99.35665894 -85.17904663 99.35665894 -86.17904663 98.35665894 C-86.26605005 96.72193012 -86.28605726 95.08351839 -86.27670288 93.44650269 C-86.27348022 92.45714722 -86.27025757 91.46779175 -86.26693726 90.44845581 C-86.2543689 88.88707886 -86.2543689 88.88707886 -86.24154663 87.29415894 C-86.23703491 86.24937378 -86.23252319 85.20458862 -86.22787476 84.12814331 C-86.21604574 81.53758958 -86.19872497 78.94716148 -86.17904663 76.35665894 C-77.758863 72.79014528 -69.12631825 69.95926425 -60.43295288 67.15353394 C-58.92979895 66.66617937 -57.42670241 66.17864775 -55.92366028 65.69094849 C-52.79541693 64.67682704 -49.66635909 63.66526978 -46.53671265 62.65548706 C-42.52457305 61.36066717 -38.51479819 60.05868603 -34.50561619 58.75474167 C-31.41231063 57.74966574 -28.31769297 56.74868122 -25.2226696 55.748909 C-23.74264032 55.27020561 -22.26304864 54.7901471 -20.78390694 54.30870819 C-18.72497872 53.63915707 -16.66432488 52.97521378 -14.6031189 52.31271362 C-13.43193008 51.93395081 -12.26074127 51.55518799 -11.05406189 51.16494751 C-8.17904663 50.35665894 -8.17904663 50.35665894 -5.17904663 50.35665894 C-5.01227381 46.9400987 -5.01227381 46.9400987 -5.17904663 43.35665894 C-7.08469227 41.02079668 -7.08469227 41.02079668 -10.3531189 41.08956909 C-14.42668657 41.3739468 -17.55452861 42.25502108 -21.39389038 43.63009644 C-22.07430389 43.86942398 -22.75471741 44.10875153 -23.45574951 44.35533142 C-24.91822076 44.87046404 -26.37906229 45.39024296 -27.83837891 45.91424561 C-31.73786074 47.31339124 -35.64989911 48.6764622 -39.56185913 50.04025269 C-40.3606398 50.31940018 -41.15942047 50.59854767 -41.98240662 50.88615417 C-51.36398836 54.14650742 -60.84574213 57.07323781 -70.34481812 59.9694519 C-77.69111764 62.2211206 -84.87791217 64.6602308 -92.04696655 67.42330933 C-101.48268859 70.2351236 -105.43634249 66.53210357 -115.17904663 62.35665894 C-115.17904663 76.54665894 -115.17904663 90.73665894 -115.17904663 105.35665894 C-113.85904663 106.01665894 -112.53904663 106.67665894 -111.17904663 107.35665894 C-108.70114264 109.83456292 -108.20686484 111.00197682 -107.92904663 114.54415894 C-108.17904663 117.35665894 -108.17904663 117.35665894 -109.17904663 118.35665894 C-109.42961031 121.27990186 -109.19281729 123.31626502 -108.24154663 126.10665894 C-105.38002134 134.85955983 -106.09713211 144.26414696 -106.17904663 153.35665894 C-115.74904663 153.35665894 -125.31904663 153.35665894 -135.17904663 153.35665894 C-135.17904663 144.35868459 -135.17904663 144.35868459 -134.55795288 140.66525269 C-134.42711304 139.8653894 -134.29627319 139.06552612 -134.16146851 138.24142456 C-134.02289429 137.4338269 -133.88432007 136.62622925 -133.74154663 135.79415894 C-133.4715846 134.16792831 -133.20204633 132.54162727 -132.93295288 130.91525269 C-132.80453003 130.14012329 -132.67610718 129.3649939 -132.54379272 128.56637573 C-131.58154781 122.73687193 -131.15091427 117.56558293 -131.63217163 111.68869019 C-131.48264038 110.91911987 -131.33310913 110.14954956 -131.17904663 109.35665894 C-130.35477173 108.86866821 -129.53049683 108.38067749 -128.6812439 107.87789917 C-125.32720078 104.49833012 -125.61071026 102.3551341 -125.61256409 97.73757935 C-125.63837051 96.73015686 -125.66417694 95.72273438 -125.69076538 94.68478394 C-125.69784012 93.64722961 -125.70491486 92.60967529 -125.71220398 91.54067993 C-125.74018022 88.22860445 -125.80292734 84.91822294 -125.86654663 81.60665894 C-125.8916252 79.36058961 -125.91443914 77.11449377 -125.93490601 74.86837769 C-125.98576597 69.36329476 -126.08361729 63.86187134 -126.17904663 58.35665894 C-132.44904663 55.71665894 -138.71904663 53.07665894 -145.17904663 50.35665894 C-143.71824906 47.43506379 -141.84993046 47.31454807 -138.80795288 46.21994019 C-137.67422241 45.80679565 -136.54049194 45.39365112 -135.37240601 44.96798706 C-134.17422241 44.53937378 -132.97603882 44.1107605 -131.74154663 43.66915894 C-124.13494551 40.92004584 -116.55932358 38.12954514 -109.03451538 35.16525269 C-97.06048113 30.46569096 -84.94364458 26.15445196 -72.84234619 21.79612732 C-69.61081418 20.63162637 -66.38027392 19.46438204 -63.14974976 18.29708862 C-62.50932236 18.06568302 -61.86889496 17.83427742 -61.20906067 17.59585953 C-59.92435159 17.13163754 -58.63964799 16.66740041 -57.35494995 16.20314789 C-55.45783916 15.51766674 -53.5606391 14.83243316 -51.66342163 14.14724731 C-41.9943766 10.65434339 -32.33178056 7.14437931 -22.67904663 3.60665894 C-21.49020874 3.17192261 -20.30137085 2.73718628 -19.07650757 2.28927612 C-18.02753296 1.9041687 -16.97855835 1.51906128 -15.89779663 1.12228394 C-15.0205896 0.80034058 -14.14338257 0.47839722 -13.23959351 0.146698 C-8.30045682 -1.74702787 -5.10678442 -1.50772548 0 0 Z M-20.10092163 5.71603394 C-21.04155457 6.06168396 -21.9821875 6.40733398 -22.95132446 6.76345825 C-25.94792274 7.86731133 -28.93845951 8.98663582 -31.92904663 10.10665894 C-33.92345305 10.84468002 -35.91824158 11.58166937 -37.91342163 12.31759644 C-41.61212753 13.68327364 -45.30839197 15.05517944 -49.00228882 16.43380737 C-53.5544523 18.13011331 -58.11736111 19.7956481 -62.68443298 21.45135498 C-66.58289138 22.86611907 -70.47509045 24.29776688 -74.36654663 25.73165894 C-75.17390259 26.02911011 -75.98125854 26.32656128 -76.81307983 26.63302612 C-84.6131972 29.51057604 -92.39756274 32.42913851 -100.17904663 35.35665894 C-104.12921061 36.84129093 -108.08076962 38.32177881 -112.03842163 39.78634644 C-120.16386791 42.80042552 -128.20960944 45.94549832 -136.17904663 49.35665894 C-132.94632038 51.90804826 -129.71653429 53.60383434 -125.98373413 55.29415894 C-124.17904663 56.35665894 -124.17904663 56.35665894 -122.17904663 59.35665894 C-121.90057373 61.50172424 -121.90057373 61.50172424 -121.86019897 64.01168823 C-121.84032928 64.95243698 -121.82045959 65.89318573 -121.79998779 66.86244202 C-121.78843658 67.87502579 -121.77688538 68.88760956 -121.76498413 69.93087769 C-121.74561798 70.96984695 -121.72625183 72.00881622 -121.70629883 73.07926941 C-121.64647364 76.40081549 -121.60010559 79.72239618 -121.55404663 83.04415894 C-121.51586959 85.29482517 -121.47681802 87.54547676 -121.43685913 89.79611206 C-121.34076974 95.31616438 -121.25573082 100.83630479 -121.17904663 106.35665894 C-121.80303345 106.66119995 -122.42702026 106.96574097 -123.06991577 107.2795105 C-125.37473204 108.4565969 -126.67651985 109.24095145 -128.17904663 111.35665894 C-128.4677615 114.32351044 -128.4677615 114.32351044 -128.24154663 117.60665894 C-128.07211413 121.30810744 -128.10884016 124.11222578 -129.13607788 127.68869019 C-130.39198582 132.10553496 -130.62688249 136.22945357 -130.80404663 140.79415894 C-130.92779663 143.61978394 -131.05154663 146.44540894 -131.17904663 149.35665894 C-124.24904663 149.35665894 -117.31904663 149.35665894 -110.17904663 149.35665894 C-109.96117881 138.02468034 -109.96117881 138.02468034 -111.75717163 126.89181519 C-112.44260303 122.77288017 -112.01448662 118.67810474 -111.66342163 114.53244019 C-112.23776268 110.99502145 -112.70660624 110.64458857 -115.16098022 108.28878784 C-119.06289702 103.87910567 -119.04106225 99.96842341 -118.98373413 94.26681519 C-118.99744049 93.32228989 -119.01114685 92.37776459 -119.02526855 91.40461731 C-119.06244607 88.40897456 -119.05886193 85.41499887 -119.05404663 82.41915894 C-119.07218196 80.37941962 -119.09298728 78.33970219 -119.11654663 76.30001831 C-119.16828302 71.31862069 -119.18348519 66.33831041 -119.17904663 61.35665894 C-110.49047527 60.11724681 -110.49047527 60.11724681 -106.67904663 62.29415894 C-101.46114574 65.25431425 -96.77406102 65.05048077 -91.1355896 63.54293823 C-88.04882594 62.55696773 -84.98219704 61.52724583 -81.92471313 60.45401001 C-79.0827195 59.45656051 -76.23181237 58.48584604 -73.38113403 57.5135498 C-71.83336808 56.98553042 -70.28605565 56.45618004 -68.73916626 55.92559814 C-58.46640941 52.40941182 -48.13241956 49.08001359 -37.80404663 45.73165894 C-34.97887767 44.81416291 -32.15385224 43.89622604 -29.32884216 42.97824097 C-27.6299974 42.42634007 -25.93105824 41.87472963 -24.23200989 41.32345581 C-21.21132524 40.34329752 -18.19182106 39.36091708 -15.17904663 38.35665894 C-10.88050569 37.87376575 -7.37473415 37.62758118 -3.61654663 39.91915894 C-1.63929751 43.27188571 -1.69217724 45.53125659 -2.17904663 49.35665894 C-4.6033864 52.78035711 -8.03519076 53.53188436 -11.90560913 54.78244019 C-12.58990494 55.00676727 -13.27420074 55.23109436 -13.97923279 55.46221924 C-15.46940242 55.94976139 -16.96090563 56.43324182 -18.45355225 56.91314697 C-21.65069878 57.94147575 -24.8411015 58.98998614 -28.03193665 60.03770447 C-29.72959527 60.59507322 -31.42757009 61.1514797 -33.12583923 61.70698547 C-42.47601321 64.76911797 -51.7935399 67.9259433 -61.10525513 71.10284424 C-63.84778721 72.03776391 -66.59174713 72.96840579 -69.33578491 73.89889526 C-71.01670556 74.47178085 -72.69753707 75.04492808 -74.37826538 75.61837769 C-75.15573624 75.88137665 -75.93320709 76.14437561 -76.73423767 76.41534424 C-80.22806747 77.4048597 -80.22806747 77.4048597 -83.17904663 79.35665894 C-83.3860133 81.99991898 -83.50341416 84.58496183 -83.55404663 87.23165894 C-83.59142944 87.9651355 -83.62881226 88.69861206 -83.66732788 89.45431519 C-83.76216608 91.87705867 -83.76216608 91.87705867 -83.17904663 95.35665894 C-81.26196129 97.34115468 -81.26196129 97.34115468 -78.17904663 98.35665894 C-77.1365979 98.78688354 -77.1365979 98.78688354 -76.0730896 99.22579956 C-73.54018948 100.25123151 -70.98950531 101.21469709 -68.42904663 102.16915894 C-67.49238159 102.52244263 -66.55571655 102.87572632 -65.59066772 103.23971558 C-59.35611737 105.57912913 -53.08870949 107.80823911 -46.79769897 109.98995972 C-40.49429136 112.19904931 -34.27296348 114.60855566 -28.05404663 117.04415894 C-27.08161011 117.42499634 -26.10917358 117.80583374 -25.10726929 118.19821167 C-21.1617039 119.75293029 -17.23854534 121.3158076 -13.37435913 123.06369019 C-7.44272043 125.46390096 -3.81785302 125.63753854 2.13345337 123.21603394 C3.35959351 122.72755981 4.58573364 122.23908569 5.84902954 121.73580933 C6.496008 121.47043365 7.14298645 121.20505798 7.80957031 120.93164062 C11.25653459 119.51784607 14.72194875 118.15036303 18.18423462 116.77462769 C19.25185783 116.34790016 19.25185783 116.34790016 20.34104919 115.91255188 C29.04516592 112.44438321 37.85645506 109.27525219 46.67056274 106.099823 C59.64644397 102.2553303 59.64644397 102.2553303 70.82095337 95.35665894 C71.14259177 92.98182746 71.14259177 92.98182746 71.12954712 90.23556519 C71.15468384 89.21785034 71.17982056 88.2001355 71.20571899 87.15158081 C71.24081055 85.00059838 71.27207483 82.84955004 71.29946899 80.69845581 C71.32589478 79.6794519 71.35232056 78.660448 71.37954712 77.61056519 C71.39300171 76.67543091 71.4064563 75.74029663 71.4203186 74.77682495 C71.89952411 71.88202655 72.47980237 71.07874617 74.82095337 69.35665894 C76.89883423 68.36105347 76.89883423 68.36105347 79.28579712 67.48947144 C80.16268188 67.16358032 81.03956665 66.83768921 81.94302368 66.50192261 C82.87211548 66.1652356 83.80120728 65.82854858 84.75845337 65.48165894 C86.66915874 64.77350335 88.5793192 64.06387576 90.48892212 63.35275269 C91.40979614 63.01098999 92.33067017 62.66922729 93.27944946 62.31710815 C96.412318 61.13317878 99.49065366 59.85857995 102.57095337 58.54415894 C106.58832839 56.83548876 110.61689572 55.37563264 114.77407837 54.04806519 C117.87625862 53.00019132 120.83253509 51.69190966 123.82095337 50.35665894 C122.07724572 46.86924364 117.77664834 46.34368856 114.25845337 45.10665894 C112.50439481 44.47557169 110.75049068 43.84405508 108.99673462 43.21212769 C108.11839966 42.89807983 107.2400647 42.58403198 106.33511353 42.26046753 C102.86014413 41.01126024 99.40169698 39.72042885 95.94595337 38.41915894 C95.30657837 38.17955444 94.66720337 37.93994995 94.00845337 37.69308472 C90.32051295 36.3082957 86.6405583 34.90415371 82.96548462 33.48556519 C70.89202964 28.83337668 58.73667175 24.48567884 46.50112915 20.2795105 C28.36760024 14.03568291 28.36760024 14.03568291 22.00845337 11.41915894 C16.92984498 9.35432681 11.78947485 7.46776857 6.63345337 5.60665894 C5.77711304 5.28834106 4.92077271 4.97002319 4.03848267 4.64205933 C3.21001831 4.34678345 2.38155396 4.05150757 1.52798462 3.74728394 C0.79039917 3.4794812 0.05281372 3.21167847 -0.7071228 2.9357605 C-7.89390563 1.25210135 -13.44361421 3.19712183 -20.10092163 5.71603394 Z " fill="#020603" transform="translate(158.17904663085938,15.643341064453125)"/>
<path d="M0 0 C0.02911321 3.0833134 0.04683682 6.16659125 0.0625 9.25 C0.07087891 10.12269531 0.07925781 10.99539062 0.08789062 11.89453125 C0.09111328 12.73886719 0.09433594 13.58320313 0.09765625 14.453125 C0.10289307 15.22817383 0.10812988 16.00322266 0.11352539 16.80175781 C0.00036998 18.99283598 -0.39447552 20.89637861 -1 23 C-1.66 23 -2.32 23 -3 23 C-3.14115234 24.10021484 -3.14115234 24.10021484 -3.28515625 25.22265625 C-4.93892204 31.647943 -10.88401913 36.57684386 -16.3125 40.0625 C-28.16818656 46.64899253 -41.33270116 51.24976293 -54 56 C-55.42730205 56.54500047 -56.85437162 57.09061004 -58.28125 57.63671875 C-59.74990089 58.19557302 -61.21864976 58.7541699 -62.6875 59.3125 C-63.73200317 59.71299561 -63.73200317 59.71299561 -64.79760742 60.12158203 C-69.77189069 62 -69.77189069 62 -72 62 C-72.22346359 57.55288354 -72.38620917 53.10878018 -72.49438477 48.65771484 C-72.53949166 47.14606802 -72.60080227 45.63481066 -72.67895508 44.12451172 C-73.30605909 31.68899815 -73.30605909 31.68899815 -70.29052734 27.78930664 C-67.92698601 26.15509697 -65.66540212 25.06646468 -63 24 C-62.23888916 23.62713867 -61.47777832 23.25427734 -60.69360352 22.87011719 C-58.32531446 21.72249927 -55.9306277 20.6959494 -53.5 19.6875 C-52.60998291 19.31141602 -51.71996582 18.93533203 -50.80297852 18.54785156 C-42.60031827 15.1374468 -34.26468489 12.10949709 -25.87890625 9.18237305 C-19.65629121 7.00455986 -13.56333391 4.62799969 -7.49829102 2.04199219 C-2.60238988 0 -2.60238988 0 0 0 Z " fill="#4A8853" transform="translate(232,130)"/>
<path d="M0 0 C5.58151806 1.00282594 10.42928967 2.51878608 15.5546875 4.9296875 C19.18681365 6.51946796 22.93618569 7.6845367 26.71484375 8.875 C30.31279228 10.10711555 33.81951865 11.50312195 37.34399414 12.9296875 C39.93524237 13.97390409 42.53561236 14.99067868 45.140625 16 C46.84375 16.66666667 48.546875 17.33333333 50.25 18 C51.10851562 18.33 51.96703125 18.66 52.8515625 19 C59.95979946 21.79955179 66.00603197 25.05401326 71 31 C71.56762695 34.3215332 71.56762695 34.3215332 71.48828125 38.05078125 C71.48120651 38.70958786 71.47413177 39.36839447 71.46684265 40.04716492 C71.43900979 42.13680034 71.37630819 44.22368476 71.3125 46.3125 C71.28740205 47.73498714 71.26459148 49.15751659 71.24414062 50.58007812 C71.18922446 54.05426861 71.10303685 57.5268655 71 61 C67.95566753 60.07101433 64.91508525 59.13028304 61.875 58.1875 C61.0190625 57.92646484 60.163125 57.66542969 59.28125 57.39648438 C54.60274334 55.93894961 50.35661111 54.2743617 46 52 C44.07029292 51.27070381 42.13224908 50.5631812 40.1875 49.875 C25.17569198 44.15949511 9.61653257 36.94198746 2 22 C0.19833209 16.88107191 -0.22076121 12.4730086 -0.125 7.0625 C-0.11597656 6.37865234 -0.10695313 5.69480469 -0.09765625 4.99023438 C-0.07438958 3.32666713 -0.03853167 1.66328369 0 0 Z " fill="#5CA667" transform="translate(72,130)"/>
<path d="M0 0 C-4.53022397 1.97748442 -9.06838947 3.8056902 -13.71875 5.48828125 C-14.98668248 5.94889524 -16.25458507 6.40959152 -17.52246094 6.87036133 C-18.49838196 7.22392197 -18.49838196 7.22392197 -19.49401855 7.58462524 C-42.8375178 14.51667322 -42.8375178 14.51667322 -63 27 C-63.1584265 29.0708472 -63.25124422 31.14678029 -63.31640625 33.22265625 C-63.35830078 34.48271484 -63.40019531 35.74277344 -63.44335938 37.04101562 C-63.48317596 38.38150736 -63.52288814 39.7220022 -63.5625 41.0625 C-63.60568042 42.40691523 -63.64929456 43.7513166 -63.69335938 45.09570312 C-63.79985358 48.3970234 -63.9018646 51.69842236 -64 55 C-61.04011278 53.98350429 -58.08184879 52.96277835 -55.125 51.9375 C-53.78223999 51.4724707 -53.78223999 51.4724707 -52.41235352 50.99804688 C-45.40847631 48.54863041 -38.49951782 45.90205846 -31.65087891 43.04663086 C-26.32467115 40.89177628 -26.32467115 40.89177628 -23 42 C-26.16607532 43.27230998 -29.33296797 44.54257353 -32.5 45.8125 C-33.386875 46.16892578 -34.27375 46.52535156 -35.1875 46.89257812 C-39.82503891 48.75100365 -44.47160725 50.57092927 -49.15527344 52.30981445 C-53.20410091 53.82464178 -57.21926594 55.42961851 -61.2421875 57.01171875 C-64 58 -64 58 -66 58 C-66.22346359 53.55288354 -66.38620917 49.10878018 -66.49438477 44.65771484 C-66.53949166 43.14606802 -66.60080227 41.63481066 -66.67895508 40.12451172 C-67.30605909 27.68899815 -67.30605909 27.68899815 -64.29052734 23.78930664 C-61.92698601 22.15509697 -59.66540212 21.06646468 -57 20 C-56.23888916 19.62713867 -55.47777832 19.25427734 -54.69360352 18.87011719 C-52.32531538 17.72249971 -49.93065453 16.69588007 -47.5 15.6875 C-46.16932495 15.12554932 -46.16932495 15.12554932 -44.81176758 14.55224609 C-34.57135576 10.29669753 -24.12389245 6.5958524 -13.65380859 2.95019531 C-11.22861189 2.08185441 -8.84636474 1.14108256 -6.45703125 0.1796875 C-3 -1 -3 -1 0 0 Z " fill="#0B160D" transform="translate(226,134)"/>
<path d="M0 0 C0.66 0 1.32 0 2 0 C2.02911321 3.0833134 2.04683682 6.16659125 2.0625 9.25 C2.07087891 10.12269531 2.07925781 10.99539062 2.08789062 11.89453125 C2.09272461 13.16103516 2.09272461 13.16103516 2.09765625 14.453125 C2.10551147 15.61569824 2.10551147 15.61569824 2.11352539 16.80175781 C2.00036998 18.99283598 1.60552448 20.89637861 1 23 C0.34 23 -0.32 23 -1 23 C-1.14115234 24.10021484 -1.14115234 24.10021484 -1.28515625 25.22265625 C-3.05026713 32.08054607 -9.42118869 36.91430738 -15.25 40.4375 C-16.82039765 41.31522225 -18.40301737 42.17163316 -20 43 C-20.69609375 43.40347656 -21.3921875 43.80695313 -22.109375 44.22265625 C-24 45 -24 45 -27 44 C-26.13117188 43.55269531 -25.26234375 43.10539062 -24.3671875 42.64453125 C-13.89529426 37.15088704 -5.47083184 32.00542265 -1.3671875 20.17578125 C-0.81188625 16.88532596 -0.62932398 13.57704539 -0.4375 10.25 C-0.39431641 9.55261719 -0.35113281 8.85523438 -0.30664062 8.13671875 C-0.20110404 6.42468078 -0.1001009 4.71236439 0 3 C-0.66 2.67 -1.32 2.34 -2 2 C-1.34 1.34 -0.68 0.68 0 0 Z " fill="#060E08" transform="translate(230,130)"/>
<path d="M0 0 C6.72886201 0.79163082 11.75144067 4.92271262 16 10 C16.56762695 13.3215332 16.56762695 13.3215332 16.48828125 17.05078125 C16.48120651 17.70958786 16.47413177 18.36839447 16.46684265 19.04716492 C16.43900979 21.13680034 16.37630819 23.22368476 16.3125 25.3125 C16.28740205 26.73498714 16.26459148 28.15751659 16.24414062 29.58007812 C16.18922446 33.05426861 16.10303685 36.5268655 16 40 C14 38 14 38 13.8046875 35.54150391 C13.82789063 34.53007324 13.85109375 33.51864258 13.875 32.4765625 C13.89046875 31.373125 13.9059375 30.2696875 13.921875 29.1328125 C13.97378442 26.80207945 14.02586659 24.47135025 14.078125 22.140625 C14.10132813 20.48160156 14.10132813 20.48160156 14.125 18.7890625 C14.14820313 17.77537598 14.17140625 16.76168945 14.1953125 15.71728516 C13.99275755 12.89923945 13.60478818 11.31352534 12 9 C11.01 8.67 10.02 8.34 9 8 C9 7.34 9 6.68 9 6 C8.34 6 7.68 6 7 6 C5.97702078 5.02351983 4.98095748 4.01868662 4 3 C2.68036291 1.98199424 1.34990354 0.97751635 0 0 Z " fill="#1A321E" transform="translate(127,151)"/>
<path d="M0 0 C4.455 0.99 4.455 0.99 9 2 C9 2.66 9 3.32 9 4 C6.69 3.67 4.38 3.34 2 3 C2.22038968 10.74669734 2.49859874 17.43191218 6.2578125 24.328125 C6.50273438 24.87984375 6.74765625 25.4315625 7 26 C6.67 26.66 6.34 27.32 6 28 C5.18162558 26.58671871 4.37053781 25.16921654 3.5625 23.75 C3.11003906 22.96109375 2.65757813 22.1721875 2.19140625 21.359375 C-0.16798888 16.68699908 -0.1259738 12.41579115 -0.0625 7.25 C-0.05798828 6.55261719 -0.05347656 5.85523438 -0.04882812 5.13671875 C-0.0371002 3.42444197 -0.01916653 1.71220967 0 0 Z " fill="#2D5432" transform="translate(72,130)"/>
<path d="M0 0 C0.66 0 1.32 0 2 0 C2.02911321 3.0833134 2.04683682 6.16659125 2.0625 9.25 C2.07087891 10.12269531 2.07925781 10.99539062 2.08789062 11.89453125 C2.09111328 12.73886719 2.09433594 13.58320313 2.09765625 14.453125 C2.10289307 15.22817383 2.10812988 16.00322266 2.11352539 16.80175781 C1.99733273 19.05164747 1.80766748 20.89213547 1 23 C0.01 23.33 -0.98 23.66 -2 24 C-1.01 13.605 -1.01 13.605 0 3 C-0.66 2.67 -1.32 2.34 -2 2 C-1.34 1.34 -0.68 0.68 0 0 Z " fill="#152818" transform="translate(230,130)"/>
<path d="M0 0 C7.34686463 1.21119677 14.07189348 3.28671113 21 6 C20.34 6.66 19.68 7.32 19 8 C16.39195905 7.24069694 13.78913119 6.46821306 11.1875 5.6875 C10.44951172 5.47416016 9.71152344 5.26082031 8.95117188 5.04101562 C8.23896484 4.82509766 7.52675781 4.60917969 6.79296875 4.38671875 C6.1383667 4.19295654 5.48376465 3.99919434 4.80932617 3.79956055 C2.71346652 2.8733778 1.51636482 1.69693329 0 0 Z " fill="#396B40" transform="translate(121,182)"/>
<path d="M0 0 C1.45947705 0.06006078 2.91779272 0.1488689 4.375 0.25 C5.59316406 0.31960937 5.59316406 0.31960937 6.8359375 0.390625 C7.55007812 0.59171875 8.26421875 0.7928125 9 1 C9.6837045 2.32467746 10.34964186 3.65863633 11 5 C13.16281282 6.1225649 13.16281282 6.1225649 15.625 6.75 C16.44226563 6.99234375 17.25953125 7.2346875 18.1015625 7.484375 C18.72804688 7.65453125 19.35453125 7.8246875 20 8 C16.51371731 9.16209423 16.13629782 8.88616059 12.98828125 7.34765625 C12.23095703 6.98349609 11.47363281 6.61933594 10.69335938 6.24414062 C9.90767578 5.85419922 9.12199219 5.46425781 8.3125 5.0625 C7.51521484 4.67642578 6.71792969 4.29035156 5.89648438 3.89257812 C3.92653557 2.93709398 1.96150061 1.97267894 0 1 C0 0.67 0 0.34 0 0 Z " fill="#294C2E" transform="translate(95,171)"/>
<path d="M0 0 C5.60649533 1.27420348 6.97748161 3.27731502 10 8 C11.91975743 9.55861494 13.86194232 10.73660228 16 12 C15.01 12.495 15.01 12.495 14 13 C11.32610025 11.00950391 8.66200595 9.00636374 6 7 C5.030625 6.278125 4.06125 5.55625 3.0625 4.8125 C1 3 1 3 0 0 Z " fill="#1E3A22" transform="translate(79,158)"/>
<path d="M0 0 C3.42383239 0.65040544 6.7726517 1.42157984 10.125 2.375 C10.97320312 2.60960937 11.82140625 2.84421875 12.6953125 3.0859375 C15.11139414 4.04418005 16.32701439 5.04271618 18 7 C16.54119891 6.85892253 15.08296449 6.71197585 13.625 6.5625 C12.40683594 6.44068359 12.40683594 6.44068359 11.1640625 6.31640625 C9 6 9 6 7 5 C7 4.34 7 3.68 7 3 C6.030625 2.87625 5.06125 2.7525 4.0625 2.625 C3.051875 2.41875 2.04125 2.2125 1 2 C0.67 1.34 0.34 0.68 0 0 Z " fill="#3A6C41" transform="translate(82,134)"/>
<path d="M0 0 C2 1 2 1 3 2 C3.07313567 4.53049402 3.09247527 7.03304837 3.0625 9.5625 C3.05798828 10.27341797 3.05347656 10.98433594 3.04882812 11.71679688 C3.03700864 13.47790013 3.01907263 15.23896036 3 17 C2.67 17 2.34 17 2 17 C2 12.71 2 8.42 2 4 C0.02 4.33 -1.96 4.66 -4 5 C-3.6875 3.0625 -3.6875 3.0625 -3 1 C-2.01 0.67 -1.02 0.34 0 0 Z " fill="#325E38" transform="translate(227,131)"/>
<path d="M0 0 C0.66 0 1.32 0 2 0 C2 3.63 2 7.26 2 11 C1.01 11.495 1.01 11.495 0 12 C0 9.03 0 6.06 0 3 C-0.66 2.67 -1.32 2.34 -2 2 C-1.34 1.34 -0.68 0.68 0 0 Z " fill="#010502" transform="translate(230,130)"/>
<path d="M0 0 C1.46015291 0.28241641 2.91809793 0.57626614 4.375 0.875 C5.18710938 1.03742188 5.99921875 1.19984375 6.8359375 1.3671875 C9 2 9 2 11 4 C7.7 3.67 4.4 3.34 1 3 C0.67 2.01 0.34 1.02 0 0 Z " fill="#2A4F2F" transform="translate(106,143)"/>
<path d="M0 0 C0.66 0.33 1.32 0.66 2 1 C0.76055724 1.86941494 -0.49207059 2.72005457 -1.75 3.5625 C-2.44609375 4.03816406 -3.1421875 4.51382813 -3.859375 5.00390625 C-6 6 -6 6 -8.265625 5.65234375 C-8.83796875 5.43707031 -9.4103125 5.22179687 -10 5 C-8.38007835 4.13624104 -6.75388139 3.28424146 -5.125 2.4375 C-4.22007812 1.96183594 -3.31515625 1.48617187 -2.3828125 0.99609375 C-1.20332031 0.50302734 -1.20332031 0.50302734 0 0 Z " fill="#3A6D41" transform="translate(177,152)"/>
<path d="M0 0 C2.9375 0.8125 2.9375 0.8125 6 2 C6.33 2.99 6.66 3.98 7 5 C3.74572241 4.43891766 2.12035493 3.54442592 0 1 C0 0.67 0 0.34 0 0 Z " fill="#38673F" transform="translate(79,158)"/>
<path d="M0 0 C4.21912747 0.4794463 6.79663178 1.16625119 10 4 C8.02 4 6.04 4 4 4 C4 3.34 4 2.68 4 2 C2.68 1.34 1.36 0.68 0 0 Z " fill="#234328" transform="translate(117,147)"/>
</svg>
