<?xml version="1.0" encoding="UTF-8"?>
<svg version="1.1" xmlns="http://www.w3.org/2000/svg" width="300" height="200">
<path d="M0 0 C99 0 198 0 300 0 C300 66 300 132 300 200 C201 200 102 200 0 200 C0 134 0 68 0 0 Z " fill="#FCFCFC" transform="translate(0,0)"/>
<path d="M0 0 C0 0.66 0 1.32 0 2 C0.60585937 2.09796875 1.21171875 2.1959375 1.8359375 2.296875 C7.33138317 3.27760069 12.17782624 4.75763445 17.30859375 6.93359375 C21.23774218 8.49042615 25.27252534 9.62479281 29.3359375 10.77734375 C32.43935966 11.81292065 35.36544155 12.97646762 38.37109375 14.2578125 C46.02560423 17.49228821 53.84396157 20.20463596 61.6875 22.9375 C63.12706762 23.44173054 64.56652119 23.9462868 66.00585938 24.45117188 C73.66373862 27.13591193 73.66373862 27.13591193 81.32546997 29.80963135 C83.62919775 30.61181559 85.9318472 31.41703522 88.234375 32.22265625 C88.93161179 32.464431 89.62884857 32.70620575 90.34721375 32.95530701 C95.08519877 34.61685776 99.60078277 36.56982405 104.1328125 38.71875 C108.3449377 40.60100758 112.66441584 42.16335812 116.99243164 43.75634766 C123.06821231 46.00004927 129.04555818 48.45131846 135 51 C130.42464168 55.57535832 125.45573214 57.40693112 119.2109375 58.41015625 C116.91170741 58.90953585 116.91170741 58.90953585 114.8203125 60.34765625 C110.90907681 62.63914198 106.78547648 63.93620686 102.5 65.375 C95.37317017 67.81053017 88.33034285 70.35637966 81.3359375 73.15234375 C79 74 79 74 77 74 C77 82.91 77 91.82 77 101 C65 105.375 65 105.375 60.78491211 106.90869141 C53.09862429 109.7154023 45.44005486 112.58662397 37.80386353 115.52713013 C33.47439976 117.19382165 29.14061593 118.84914165 24.80688477 120.50469971 C22.64744892 121.33356135 20.49019993 122.16814349 18.33520508 123.00848389 C15.27178739 124.20242857 12.20135441 125.37640195 9.12890625 126.546875 C8.21017227 126.91090424 7.29143829 127.27493347 6.34486389 127.6499939 C-1.10257661 130.45200637 -6.19383459 130.05702358 -13.515625 126.80078125 C-20.53055905 123.76308374 -27.62534421 120.95481214 -34.75 118.1875 C-35.75197922 117.79739746 -35.75197922 117.79739746 -36.77420044 117.39941406 C-46.86364517 113.48061263 -57.00956144 109.83983817 -67.33691406 106.58666992 C-68.23506836 106.30025635 -69.13322266 106.01384277 -70.05859375 105.71875 C-70.82486084 105.48091797 -71.59112793 105.24308594 -72.38061523 104.99804688 C-76.0364852 103.60507489 -79.50077081 101.74961459 -83 100 C-83 92.41 -83 84.82 -83 77 C-74.17651907 74.18244424 -65.35280083 71.36563475 -56.52867317 68.55010509 C-52.43042746 67.24243867 -48.33228288 65.93445719 -44.234375 64.62573242 C-40.2729367 63.36060434 -36.3112255 62.09633426 -32.3493309 60.83263588 C-30.8447297 60.35256229 -29.34022383 59.87218984 -27.83581924 59.39150047 C-25.71388427 58.71355563 -23.59160874 58.03668752 -21.46923828 57.36010742 C-20.48365779 57.04498593 -20.48365779 57.04498593 -19.47816658 56.72349834 C-14.94928861 55.28187741 -10.40011425 53.93334181 -5.81784058 52.67207336 C-3.78625307 52.06493847 -3.78625307 52.06493847 -2 50 C-1.66666667 47.5 -1.66666667 47.5 -2 45 C-3.94958247 42.62225452 -3.94958247 42.62225452 -7.54296875 42.6875 C-12.47104142 42.81217679 -16.72315471 44.31179013 -21.3125 46 C-22.8905302 46.56640696 -24.46990857 47.12907567 -26.05078125 47.6875 C-26.73825439 47.93886719 -27.42572754 48.19023438 -28.1340332 48.44921875 C-30 49 -30 49 -33 49 C-33 49.66 -33 50.32 -33 51 C-37.25453393 52.53394761 -41.25051983 53.90006931 -45.75 54.5 C-48.95110666 54.76585482 -48.95110666 54.76585482 -51.09765625 56.35546875 C-55.10485229 58.62603339 -59.25596158 59.6297122 -63.6875 60.8125 C-71.60201024 62.97533865 -79.37145312 65.35829991 -87.04956055 68.2590332 C-96.73836207 71.71286386 -102.16016446 68.09993148 -112 64 C-112 78.19 -112 92.38 -112 107 C-110.68 107.66 -109.36 108.32 -108 109 C-105.10608992 112.67653984 -105.7792284 117.30767117 -105.875 121.75 C-105.88402344 122.54277344 -105.89304688 123.33554688 -105.90234375 124.15234375 C-105.92582988 126.10169281 -105.96169863 128.05088575 -106 130 C-105.34 130 -104.68 130 -104 130 C-102.87247582 138.03360979 -102.92703318 145.90068316 -103 154 C-112.24 154 -121.48 154 -131 154 C-130.1915791 135.94526661 -130.1915791 135.94526661 -128.390625 128.57421875 C-127.67655962 123.86852791 -128.13104441 119.05699567 -128.41796875 114.3203125 C-128.28003906 113.22460938 -128.14210937 112.12890625 -128 111 C-127.18096191 110.4961377 -126.36192383 109.99227539 -125.51806641 109.47314453 C-122.11173367 106.12758019 -122.37580412 103.86255769 -122.28105164 99.22845459 C-122.28498428 98.19915833 -122.28891693 97.16986206 -122.29296875 96.109375 C-122.27784744 95.04962463 -122.26272614 93.98987427 -122.24714661 92.89801025 C-122.2041787 89.51512526 -122.19542246 86.13313101 -122.1875 82.75 C-122.1643629 80.45570533 -122.13899922 78.16143196 -122.11132812 75.8671875 C-122.04838612 70.24478331 -122.01352399 64.62272848 -122 59 C-123.10843262 58.85361084 -124.21686523 58.70722168 -125.35888672 58.55639648 C-128.50427956 58.07575076 -130.4031716 57.57146344 -133.125 56.0625 C-136.03020884 54.50815675 -138.90868243 53.15924409 -142 52 C-140.54780827 49.09561655 -138.7506213 49.02130623 -135.71484375 47.9765625 C-134.62623047 47.595 -133.53761719 47.2134375 -132.41601562 46.8203125 C-130.69415039 46.22863281 -130.69415039 46.22863281 -128.9375 45.625 C-126.69491889 44.85125149 -124.45398927 44.07269769 -122.21484375 43.2890625 C-121.21573975 42.94568848 -120.21663574 42.60231445 -119.18725586 42.24853516 C-116.75339177 41.29512413 -114.56180849 40.28876972 -112.25439453 39.09008789 C-107.55845475 36.69570126 -102.69118425 34.9861729 -97.71484375 33.26953125 C-96.72054352 32.92141891 -95.72624329 32.57330658 -94.70181274 32.21464539 C-92.56167411 31.46575918 -90.4207377 30.71914961 -88.27908325 29.97460938 C-82.57515782 27.99094334 -76.877728 25.98877575 -71.1796875 23.98828125 C-70.01149979 23.57857086 -68.84331207 23.16886047 -67.63972473 22.74673462 C-56.29335671 18.76263573 -44.97270043 14.70861725 -33.6633606 10.62069702 C-31.60244093 9.87585008 -29.54114308 9.13204865 -27.47946167 8.38931274 C-24.61165052 7.35592324 -21.74507406 6.31918734 -18.87890625 5.28125 C-17.61054428 4.82464241 -17.61054428 4.82464241 -16.31655884 4.35881042 C-15.14968033 3.93466606 -15.14968033 3.93466606 -13.95922852 3.50195312 C-12.95086693 3.13704773 -12.95086693 3.13704773 -11.9221344 2.76477051 C-9.94599634 2.01912488 -9.94599634 2.01912488 -7.95567322 0.91394043 C-5.26575435 -0.34313339 -2.92734657 -0.13306121 0 0 Z " fill="#142F51" transform="translate(155,14)"/>
<path d="M0 0 C0.51554764 12.34450189 0.54227702 21.76409855 -7.625 31.75 C-16.20717467 40.69303394 -27.701767 44.57426808 -39 49 C-46.02860672 51.73005227 -46.02860672 51.73005227 -52.8125 55 C-58.36894672 57.87520446 -65.69323777 61 -72 61 C-72.22346359 56.55288354 -72.38620917 52.10878018 -72.49438477 47.65771484 C-72.53949166 46.14606802 -72.60080227 44.63481066 -72.67895508 43.12451172 C-73.30834509 30.6436667 -73.30834509 30.6436667 -70.21582031 26.75854492 C-67.8711632 25.15402957 -65.63490849 24.05238166 -63 23 C-61.76284135 22.37665817 -60.5258462 21.75299169 -59.2890625 21.12890625 C-57.47535156 20.35353516 -57.47535156 20.35353516 -55.625 19.5625 C-54.95726562 19.27592529 -54.28953125 18.98935059 -53.6015625 18.6940918 C-47.36990468 16.06296329 -41.02693423 13.72932237 -34.64697266 11.48461914 C-30.22347495 9.90982354 -26.08310051 8.09958862 -21.91113281 5.94799805 C-18.97662651 4.49236596 -15.95241899 3.36530621 -12.875 2.25 C-11.71742188 1.82203125 -10.55984375 1.3940625 -9.3671875 0.953125 C-6.058111 0.01644905 -3.41635905 -0.18691326 0 0 Z " fill="#E82628" transform="translate(232,131)"/>
<path d="M0 0 C3.30471653 0.58333418 6.21822522 1.39071523 9.3046875 2.69921875 C13.70757997 4.50647336 18.15208671 6.16713599 22.6328125 7.76953125 C23.66169586 8.1389534 23.66169586 8.1389534 24.71136475 8.51583862 C27.55398185 9.53584809 30.39720441 10.554047 33.24316406 11.56469727 C41.13742994 14.37193331 48.96763315 17.29521924 56.6796875 20.57421875 C57.32729034 20.84216751 57.97489319 21.11011627 58.64212036 21.38618469 C63.40155672 23.45768695 68.59260966 26.18521933 71 31 C71.08559118 33.17824961 71.10713412 35.35915255 71.09765625 37.5390625 C71.09282227 39.49199219 71.09282227 39.49199219 71.08789062 41.484375 C71.07953466 42.86458399 71.07106971 44.24479232 71.0625 45.625 C71.05748501 47.01301926 71.0529221 48.40104022 71.04882812 49.7890625 C71.03700976 53.19275132 71.02053434 56.59635439 71 60 C65.79310897 59.30546156 61.04831249 58.26930551 56.0625 56.6875 C55.39798828 56.48705078 54.73347656 56.28660156 54.04882812 56.08007812 C49.81955475 54.75509723 45.97773614 53.06849277 42.04711914 51.02856445 C39.95069611 49.97522752 37.83169441 49.04701481 35.66796875 48.140625 C20.10485541 41.602367 8.70922401 34.56670232 1 19 C-0.25433458 15.23699626 -0.10695422 11.72789091 -0.0625 7.8125 C-0.05798828 7.06291016 -0.05347656 6.31332031 -0.04882812 5.54101562 C-0.03706354 3.69397617 -0.01912865 1.84697787 0 0 Z " fill="#1EA586" transform="translate(72,130)"/>
<path d="M0 0 C0.47868851 11.46193046 0.84348461 21.25753893 -6.75 30.625 C-7.4925 31.40875 -8.235 32.1925 -9 33 C-9.33 31.68 -9.66 30.36 -10 29 C-9.01 28.67 -8.02 28.34 -7 28 C-4.58983594 19.91886168 -3.96384831 11.35676996 -3 3 C-4.57007813 3.69416016 -4.57007813 3.69416016 -6.171875 4.40234375 C-9.96088894 6.02688824 -13.79374537 7.1622561 -17.765625 8.25390625 C-20.24331809 8.97254822 -20.24331809 8.97254822 -23 11 C-25.6875 10.625 -25.6875 10.625 -28 10 C-24.57986855 6.16207032 -20.42010721 5.02338215 -15.6875 3.3125 C-14.42389648 2.83200195 -14.42389648 2.83200195 -13.13476562 2.34179688 C-8.60950264 0.68241584 -4.8970245 -0.4233969 0 0 Z " fill="#C2353E" transform="translate(232,131)"/>
<path d="M0 0 C16.43483704 1.32539008 16.43483704 1.32539008 20.46484375 5.52734375 C22.55873394 7.5359865 24.35571544 7.7094065 27.1875 8.1875 C28.08855469 8.34605469 28.98960938 8.50460938 29.91796875 8.66796875 C30.94857422 8.83232422 30.94857422 8.83232422 32 9 C32 9.66 32 10.32 32 11 C32.74765625 11.10957031 33.4953125 11.21914062 34.265625 11.33203125 C35.25046875 11.49058594 36.2353125 11.64914063 37.25 11.8125 C38.22453125 11.96332031 39.1990625 12.11414063 40.203125 12.26953125 C43.1492807 13.03898812 44.79722506 13.91785322 47 16 C47 16.66 47 17.32 47 18 C39.31017977 15.47535504 31.68469519 12.78384608 24.0625 10.0625 C22.85142578 9.63259766 21.64035156 9.20269531 20.39257812 8.75976562 C13.53447406 6.31282974 6.73362745 3.77209897 0 1 C0 0.67 0 0.34 0 0 Z " fill="#B8E7DF" transform="translate(77,131)"/>
<path d="M0 0 C0 0.99 0 1.98 0 3 C-4.55834168 5.8125938 -8.81565325 7.68816249 -13.921875 9.27734375 C-16.51866294 10.18036211 -18.69822303 11.5106149 -21 13 C-21.99 13.33 -22.98 13.66 -24 14 C-23.67 24.23 -23.34 34.46 -23 45 C-23.66 45 -24.32 45 -25 45 C-25.22346359 40.55288354 -25.38620917 36.10878018 -25.49438477 31.65771484 C-25.53949166 30.14606802 -25.60080227 28.63481066 -25.67895508 27.12451172 C-26.30702648 14.6698147 -26.30702648 14.6698147 -23.25756836 10.77392578 C-20.90082774 9.150433 -18.65575805 8.057987 -16 7 C-14.89096313 6.46173584 -14.89096313 6.46173584 -13.75952148 5.91259766 C-11.67629952 4.90939749 -9.57474051 4.00633629 -7.4375 3.125 C-6.3537207 2.66480469 -6.3537207 2.66480469 -5.24804688 2.1953125 C-3.50215488 1.45533179 -1.75157725 0.726421 0 0 Z " fill="#C4454C" transform="translate(185,147)"/>
<path d="M0 0 C0 0.99 0 1.98 0 3 C-5.21290294 5.02724003 -10.41109486 6.75630108 -15.80078125 8.25390625 C-18.24701957 8.97835936 -18.24701957 8.97835936 -21 11 C-23.6875 10.625 -23.6875 10.625 -26 10 C-23.76860954 7.48708517 -21.83381612 6.33125163 -18.69140625 5.17578125 C-17.86189453 4.86962891 -17.03238281 4.56347656 -16.17773438 4.24804688 C-15.31470703 3.93931641 -14.45167969 3.63058594 -13.5625 3.3125 C-12.27375977 2.83200195 -12.27375977 2.83200195 -10.95898438 2.34179688 C-6.99864922 0.90083707 -4.28384178 0 0 0 Z " fill="#CB2B2F" transform="translate(230,131)"/>
<path d="M0 0 C-19.51460298 9.86644357 -19.51460298 9.86644357 -30 11 C-30 10.34 -30 9.68 -30 9 C-28.35 9 -26.7 9 -25 9 C-24.773125 8.36578125 -24.54625 7.7315625 -24.3125 7.078125 C-23 5 -23 5 -20.6875 4.171875 C-19.800625 4.03265625 -18.91375 3.8934375 -18 3.75 C-17.113125 3.60046875 -16.22625 3.4509375 -15.3125 3.296875 C-13 3 -13 3 -11 3 C-11 2.34 -11 1.68 -11 1 C-6.92630576 -1.03684712 -4.41062136 -1.0257259 0 0 Z " fill="#CC3B41" transform="translate(192,180)"/>
<path d="M0 0 C2.12890625 0.36328125 2.12890625 0.36328125 4 1 C-1.26770853 5.58061611 -6.79448404 8.48927656 -13.125 11.3125 C-13.90085449 11.66183594 -14.67670898 12.01117188 -15.47607422 12.37109375 C-19.64849216 14.18542143 -23.43284399 15.49659143 -28 16 C-28 15.34 -28 14.68 -28 14 C-20.71428571 10.57142857 -20.71428571 10.57142857 -16 11 C-16 10.34 -16 9.68 -16 9 C-15.26394531 8.76925781 -14.52789062 8.53851563 -13.76953125 8.30078125 C-7.28229028 6.29801595 -7.28229028 6.29801595 -2.0625 2.1875 C-1.381875 1.465625 -0.70125 0.74375 0 0 Z " fill="#C9232B" transform="translate(218,164)"/>
<path d="M0 0 C0.66 0.33 1.32 0.66 2 1 C1.35546875 1.73476562 0.7109375 2.46953125 0.046875 3.2265625 C-3.19025241 8.08225361 -2.67692179 13.7346911 -2.75 19.375 C-2.77964844 20.49261719 -2.80929688 21.61023438 -2.83984375 22.76171875 C-2.91025824 25.5078839 -2.96309623 28.25321404 -3 31 C-1.68 31.33 -0.36 31.66 1 32 C-0.65 32 -2.3 32 -4 32 C-4.33 32.66 -4.66 33.32 -5 34 C-5.12383963 29.80088403 -5.21444607 25.60274184 -5.2746582 21.40234375 C-5.29976347 19.97442099 -5.33385587 18.54662625 -5.37719727 17.11914062 C-5.43803678 15.06348082 -5.46624551 13.00952247 -5.48828125 10.953125 C-5.51446533 9.71723633 -5.54064941 8.48134766 -5.56762695 7.20800781 C-5 4 -5 4 -2.46948242 1.56542969 C-1.65455322 1.04883789 -0.83962402 0.53224609 0 0 Z " fill="#D12129" transform="translate(166,157)"/>
<path d="M0 0 C0.99 0.33 1.98 0.66 3 1 C4.07023472 4.21070415 4.04943511 6.29387268 3.9140625 9.65625 C3.87023437 10.76097656 3.82640625 11.86570313 3.78125 13.00390625 C3.70390625 14.73447266 3.70390625 14.73447266 3.625 16.5 C3.58117187 17.65371094 3.53734375 18.80742187 3.4921875 19.99609375 C3.13039261 28.60882218 3.13039261 28.60882218 2 32 C1.01 31.67 0.02 31.34 -1 31 C-0.34 31 0.32 31 1 31 C0.67 20.77 0.34 10.54 0 0 Z " fill="#C1EEE4" transform="translate(142,159)"/>
<path d="M0 0 C0.66 0.33 1.32 0.66 2 1 C1.67 11.56 1.34 22.12 1 33 C0.34 33 -0.32 33 -1 33 C-1.19282973 28.94371612 -1.37145834 24.887077 -1.53710938 20.82958984 C-1.59540761 19.45018879 -1.65754312 18.07094424 -1.72363281 16.69189453 C-1.81810666 14.70651227 -1.89751548 12.7204313 -1.9765625 10.734375 C-2.02893066 9.54038086 -2.08129883 8.34638672 -2.13525391 7.11621094 C-2.00405325 4.09338565 -1.59901387 2.52131196 0 0 Z " fill="#F7CFD4" transform="translate(159,159)"/>
<path d="M0 0 C0.99 0.33 1.98 0.66 3 1 C2.34 1 1.68 1 1 1 C1.31328058 9.80426458 1.61045808 17.74720228 5 26 C3.125 25.375 3.125 25.375 1 24 C-1.33433946 19.1472249 -1.27274156 14.45004502 -1.1875 9.1875 C-1.18685547 8.41212891 -1.18621094 7.63675781 -1.18554688 6.83789062 C-1.140687 1.140687 -1.140687 1.140687 0 0 Z " fill="#BAEEE4" transform="translate(71,129)"/>
<path d="M0 0 C1.65 0 3.3 0 5 0 C5.02903577 3.10414702 5.0468107 6.20825909 5.0625 9.3125 C5.07087891 10.19357422 5.07925781 11.07464844 5.08789062 11.98242188 C5.09111328 12.82998047 5.09433594 13.67753906 5.09765625 14.55078125 C5.10289307 15.33106689 5.10812988 16.11135254 5.11352539 16.9152832 C5 19 5 19 4 22 C3.34 22 2.68 22 2 22 C2.33 15.07 2.66 8.14 3 1 C2.01 0.67 1.02 0.34 0 0 Z " fill="#F8CED4" transform="translate(229,130)"/>
<path d="M0 0 C1.32 0.33 2.64 0.66 4 1 C0.6284861 3.24767593 -2.90069828 4.92054736 -6.5625 6.625 C-7.24763672 6.94984375 -7.93277344 7.2746875 -8.63867188 7.609375 C-13.75641741 10 -13.75641741 10 -16 10 C-16 9.34 -16 8.68 -16 8 C-15.34 8 -14.68 8 -14 8 C-14 7.34 -14 6.68 -14 6 C-12.35 6 -10.7 6 -9 6 C-9 5.34 -9 4.68 -9 4 C-7.68 4 -6.36 4 -5 4 C-5 3.34 -5 2.68 -5 2 C-3.35 2 -1.7 2 0 2 C0 1.34 0 0.68 0 0 Z " fill="#F8D2D4" transform="translate(181,146)"/>
<path d="M0 0 C1.65 0 3.3 0 5 0 C5 0.66 5 1.32 5 2 C5.74765625 2.10957031 6.4953125 2.21914062 7.265625 2.33203125 C8.74289063 2.56986328 8.74289063 2.56986328 10.25 2.8125 C11.22453125 2.96332031 12.1990625 3.11414063 13.203125 3.26953125 C16.1492807 4.03898812 17.79722506 4.91785322 20 7 C20 7.66 20 8.32 20 9 C5.00784519 4.20658996 5.00784519 4.20658996 0 0 Z " fill="#C5EEE8" transform="translate(104,140)"/>
<path d="M0 0 C2.61959624 2.61959624 2.28856227 4.54853793 2.32226562 8.12109375 C2.31743164 9.29865234 2.31743164 9.29865234 2.3125 10.5 C2.32861328 11.28503906 2.34472656 12.07007813 2.36132812 12.87890625 C2.36328125 15.15625 2.36328125 15.15625 2 19 C1.01 19.66 0.02 20.32 -1 21 C-0.67 14.07 -0.34 7.14 0 0 Z " fill="#EFFFFE" transform="translate(145,170)"/>
<path d="M0 0 C0.33 0 0.66 0 1 0 C1 8.58 1 17.16 1 26 C-1.31 26.66 -3.62 27.32 -6 28 C-5.505 26.515 -5.505 26.515 -5 25 C-3.68 24.67 -2.36 24.34 -1 24 C-0.67 16.08 -0.34 8.16 0 0 Z " fill="#414E5F" transform="translate(231,89)"/>
<path d="M0 0 C-6.12133356 3.74775524 -11.91252497 5.71136818 -19 7 C-19 6.34 -19 5.68 -19 5 C-16.39985473 3.96772138 -13.79573631 2.94894848 -11.1875 1.9375 C-10.44951172 1.64294922 -9.71152344 1.34839844 -8.95117188 1.04492188 C-3.33984375 -1.11328125 -3.33984375 -1.11328125 0 0 Z " fill="#C4262B" transform="translate(205,142)"/>
<path d="M0 0 C-6.08150141 5.21271549 -10.17864585 6.26513065 -18 6 C-14.87754953 3.91836635 -11.92965119 2.67424387 -8.4375 1.3125 C-7.28121094 0.85488281 -6.12492188 0.39726562 -4.93359375 -0.07421875 C-2 -1 -2 -1 0 0 Z " fill="#EEBABF" transform="translate(203,177)"/>
<path d="M0 0 C4.72065967 1.54269924 9.41664092 3.07794619 14 5 C14 5.66 14 6.32 14 7 C15.32 7.66 16.64 8.32 18 9 C13.8238413 8.3735762 10.51247515 6.95763834 6.75 5.0625 C5.69296875 4.53785156 4.6359375 4.01320312 3.546875 3.47265625 C1 2 1 2 0 0 Z " fill="#25997D" transform="translate(90,168)"/>
<path d="M0 0 C0 0.99 0 1.98 0 3 C-2.24743045 3.53181175 -4.49807102 4.05007126 -6.75 4.5625 C-8.62945312 4.99755859 -8.62945312 4.99755859 -10.546875 5.44140625 C-13.59473748 5.93444283 -15.17641828 6.07666879 -18 5 C-15.75267898 4.15875684 -13.50261215 3.32685168 -11.25 2.5 C-10.61578125 2.26152344 -9.9815625 2.02304688 -9.328125 1.77734375 C-5.96713393 0.55198242 -3.63128413 0 0 0 Z " fill="#CB646A" transform="translate(230,131)"/>
<path d="M0 0 C-1.65 1.32 -3.3 2.64 -5 4 C-4.34 4.66 -3.68 5.32 -3 6 C-5.64 5.67 -8.28 5.34 -11 5 C-11 4.01 -11 3.02 -11 2 C-9.54494642 1.47007308 -8.08581873 0.9513211 -6.625 0.4375 C-5.81289063 0.14746094 -5.00078125 -0.14257812 -4.1640625 -0.44140625 C-2 -1 -2 -1 0 0 Z " fill="#1E2D47" transform="translate(25,62)"/>
<path d="M0 0 C0.33 0 0.66 0 1 0 C1 8.91 1 17.82 1 27 C0.01 26.67 -0.98 26.34 -2 26 C-1.67 25.34 -1.34 24.68 -1 24 C-0.84693099 22.18828902 -0.75053339 20.3716206 -0.68359375 18.5546875 C-0.62075195 16.94013672 -0.62075195 16.94013672 -0.55664062 15.29296875 C-0.51732422 14.16503906 -0.47800781 13.03710938 -0.4375 11.875 C-0.39431641 10.73933594 -0.35113281 9.60367188 -0.30664062 8.43359375 C-0.2003396 5.62252232 -0.09830595 2.81136055 0 0 Z " fill="#1E9175" transform="translate(142,163)"/>
<path d="M0 0 C0.66 0.33 1.32 0.66 2 1 C-0.37033864 3.76669035 -2.46545585 4.72666067 -5.9375 5.75 C-6.79214844 6.01296875 -7.64679688 6.2759375 -8.52734375 6.546875 C-11.09097669 7.01667187 -12.56117696 6.83746128 -15 6 C-14.25234375 5.73445312 -13.5046875 5.46890625 -12.734375 5.1953125 C-11.74953125 4.84210938 -10.7646875 4.48890625 -9.75 4.125 C-8.77546875 3.77695313 -7.8009375 3.42890625 -6.796875 3.0703125 C-4.04565543 2.08449066 -4.04565543 2.08449066 -1.765625 0.8046875 C-1.18296875 0.53914062 -0.6003125 0.27359375 0 0 Z " fill="#F6CDD2" transform="translate(183,183)"/>
<path d="M0 0 C2.97722547 0.70333538 5.85256543 1.58248537 8.75 2.5625 C9.94882813 2.96662109 9.94882813 2.96662109 11.171875 3.37890625 C11.77515625 3.58386719 12.3784375 3.78882813 13 4 C10 6 10 6 7.3125 5.625 C6.549375 5.41875 5.78625 5.2125 5 5 C5 4.34 5 3.68 5 3 C3.35 3 1.7 3 0 3 C0 2.01 0 1.02 0 0 Z " fill="#3DA490" transform="translate(73,130)"/>
<path d="M0 0 C4.95 0.99 9.9 1.98 15 3 C15 3.99 15 4.98 15 6 C13.24859857 5.54705135 11.49892656 5.08741252 9.75 4.625 C8.77546875 4.36976563 7.8009375 4.11453125 6.796875 3.8515625 C4.34162697 3.10401491 2.24382595 2.22876183 0 1 C0 0.67 0 0.34 0 0 Z " fill="#6AB6A1" transform="translate(119,182)"/>
<path d="M0 0 C2.93706939 2.78248679 5.43415863 5.87938211 8 9 C5 10 5 10 2.875 9 C0.25705165 6.20752176 0.28167448 3.7321869 0 0 Z " fill="#C2F0E5" transform="translate(76,155)"/>
<path d="M0 0 C3.63 1.98 7.26 3.96 11 6 C6.70600835 7.07349791 5.80504787 6.79682816 2 5 C2 4.34 2 3.68 2 3 C1.34 3 0.68 3 0 3 C0 2.01 0 1.02 0 0 Z " fill="#C8F3E9" transform="translate(87,167)"/>
<path d="M0 0 C1.32 0.33 2.64 0.66 4 1 C1.36 2.98 -1.28 4.96 -4 7 C-4.33 6.34 -4.66 5.68 -5 5 C-2.75 2.4375 -2.75 2.4375 0 0 Z " fill="#C33438" transform="translate(218,164)"/>
<path d="M0 0 C0 3.90838866 -1.50567876 5.11594107 -4 8 C-5.32 7.67 -6.64 7.34 -8 7 C-5.36 4.69 -2.72 2.38 0 0 Z " fill="#F6CDD0" transform="translate(224,162)"/>
<path d="M0 0 C2.31 0.33 4.62 0.66 7 1 C7.33 2.65 7.66 4.3 8 6 C4.942048 4.26440562 2.36620011 2.61527381 0 0 Z " fill="#CFF5ED" transform="translate(134,153)"/>
<path d="M0 0 C0.99 0.33 1.98 0.66 3 1 C-0.75 6.875 -0.75 6.875 -3 8 C-2.67 6.35 -2.34 4.7 -2 3 C-1.34 3 -0.68 3 0 3 C0 2.01 0 1.02 0 0 Z " fill="#C2393E" transform="translate(225,156)"/>
<path d="M0 0 C-2.3129482 2.3129482 -3.47904875 2.49580975 -6.625 3.125 C-7.44226563 3.29257813 -8.25953125 3.46015625 -9.1015625 3.6328125 C-10.04128906 3.81457031 -10.04128906 3.81457031 -11 4 C-10.34 3.67 -9.68 3.34 -9 3 C-9 2.34 -9 1.68 -9 1 C-6.04335481 -0.4783226 -3.25770263 -0.06032783 0 0 Z " fill="#EFBDC2" transform="translate(204,140)"/>
<path d="M0 0 C0.66 0.33 1.32 0.66 2 1 C-2.39453125 5.00390625 -2.39453125 5.00390625 -4 6 C-4.99 5.67 -5.98 5.34 -7 5 C-2.25 1.125 -2.25 1.125 0 0 Z " fill="#243850" transform="translate(34,120)"/>
<path d="M0 0 C3.3 0.99 6.6 1.98 10 3 C10 3.33 10 3.66 10 4 C8.54077307 3.88590407 7.08259402 3.75834456 5.625 3.625 C4.40683594 3.52058594 4.40683594 3.52058594 3.1640625 3.4140625 C1 3 1 3 -1 1 C-0.67 0.67 -0.34 0.34 0 0 Z " fill="#D8F6F0" transform="translate(134,188)"/>
<path d="M0 0 C0.66 0.33 1.32 0.66 2 1 C1.67 1.99 1.34 2.98 1 4 C-0.98 4.33 -2.96 4.66 -5 5 C-5.33 4.34 -5.66 3.68 -6 3 C-4.03533587 1.93224776 -2.03144641 0.93446535 0 0 Z " fill="#D05357" transform="translate(210,137)"/>
</svg>
