<?xml version="1.0" standalone="no"?>
<!DOCTYPE svg PUBLIC "-//W3C//DTD SVG 20010904//EN"
 "http://www.w3.org/TR/2001/REC-SVG-20010904/DTD/svg10.dtd">
<svg version="1.0" xmlns="http://www.w3.org/2000/svg"
 width="300.000000pt" height="200.000000pt" viewBox="0 0 300.000000 200.000000"
 preserveAspectRatio="xMidYMid meet">
<metadata>
Created by potrace 1.10, written by Peter Selinger 2001-2011
</metadata>
<g transform="translate(0.000000,200.000000) scale(0.100000,-0.100000)"
fill="#000000" stroke="none">
<path d="M1375 1810 c-71 -27 -263 -97 -425 -155 -162 -59 -365 -134 -450
-167 -85 -33 -204 -77 -263 -98 -59 -21 -109 -39 -111 -41 -2 -2 43 -22 100
-44 l104 -40 0 -236 0 -235 -30 -22 c-25 -19 -30 -30 -30 -63 0 -22 4 -49 10
-59 7 -13 5 -29 -5 -53 -8 -20 -19 -73 -25 -119 -5 -46 -13 -101 -16 -123 l-6
-40 147 0 148 0 -7 115 c-5 79 -13 128 -26 158 -14 32 -17 49 -10 62 20 38 12
90 -19 121 l-30 29 -1 213 c-1 116 2 211 6 210 5 -1 43 -17 85 -34 l77 -32
442 146 c319 106 446 145 458 138 10 -5 26 -19 36 -30 16 -17 17 -25 8 -45 -9
-20 -32 -31 -129 -61 -65 -20 -246 -79 -403 -130 l-285 -94 0 -112 0 -112 135
-50 c408 -151 570 -212 612 -232 l47 -23 93 37 c51 21 231 89 401 152 l307
114 0 131 0 131 168 63 c315 119 437 169 422 173 -48 15 -167 59 -325 120 -99
38 -268 101 -375 139 -461 166 -695 248 -700 247 -3 0 -63 -22 -135 -49z m230
-15 c33 -14 67 -25 75 -25 9 0 24 -6 35 -13 11 -7 40 -19 65 -26 25 -6 68 -20
95 -31 28 -10 138 -51 245 -90 107 -40 204 -76 215 -81 11 -5 54 -20 95 -34
41 -15 84 -30 95 -35 11 -5 76 -29 144 -54 67 -24 126 -47 129 -51 9 -9 -9
-21 -68 -43 -236 -92 -405 -163 -421 -178 -16 -15 -19 -31 -19 -125 0 -124 -1
-125 -87 -158 -32 -13 -69 -28 -83 -33 -14 -6 -52 -21 -85 -33 -114 -42 -200
-75 -230 -89 -16 -8 -48 -19 -70 -26 -22 -7 -44 -16 -50 -20 -5 -3 -44 -19
-86 -34 l-77 -27 -63 26 c-35 14 -147 58 -249 96 -102 39 -195 74 -207 80 -13
5 -33 13 -45 18 -13 5 -39 16 -60 25 -20 9 -41 16 -47 16 -25 0 -91 41 -92 58
-3 42 3 138 10 144 6 6 291 106 446 155 182 58 313 108 333 126 29 27 29 77
-1 105 -43 40 -63 41 -176 7 -143 -44 -331 -105 -356 -116 -11 -4 -72 -24
-135 -43 -63 -19 -142 -45 -175 -57 -109 -39 -107 -39 -171 -8 -125 62 -140
43 -138 -171 3 -273 1 -253 34 -295 28 -36 30 -42 24 -95 -4 -37 -2 -65 6 -80
7 -12 14 -52 16 -89 3 -36 6 -77 9 -91 7 -46 -4 -51 -111 -48 l-99 3 3 75 c1
41 10 100 19 130 18 58 18 64 8 121 -6 31 -3 41 26 74 l34 38 0 233 c0 229 0
233 -23 257 -13 14 -43 32 -68 42 -45 17 -58 35 -26 35 10 0 22 4 27 8 6 4 28
14 50 21 22 7 98 35 170 61 72 27 254 94 405 150 151 56 309 115 350 131 41
16 78 29 82 29 4 0 19 5 35 12 135 56 154 57 238 23z"/>
<path d="M720 631 c0 -89 15 -141 61 -207 65 -94 194 -167 499 -280 63 -23
123 -45 133 -49 16 -7 17 4 17 145 l0 152 -32 31 c-41 38 -130 79 -318 147
-139 50 -242 90 -322 124 l-38 16 0 -79z m170 -22 c30 -11 64 -23 75 -28 11
-5 47 -18 80 -30 197 -65 297 -113 340 -161 18 -19 20 -35 18 -127 0 -58 -5
-109 -11 -115 -6 -6 -22 -4 -46 6 -20 8 -37 15 -39 15 -4 0 -40 12 -77 26 -19
8 -46 17 -60 21 -58 15 -209 91 -263 132 -70 53 -133 130 -147 180 -11 41 -13
115 -4 125 4 3 23 -1 43 -10 20 -9 61 -24 91 -34z"/>
<path d="M2047 600 c-306 -117 -387 -153 -421 -189 -24 -25 -25 -31 -28 -179
-2 -83 1 -152 6 -152 24 0 420 156 505 200 143 71 211 181 211 336 0 46 -3 84
-7 83 -5 -1 -124 -45 -266 -99z m239 26 c6 -26 -1 -111 -12 -142 -32 -87 -131
-168 -280 -229 -148 -59 -299 -114 -334 -122 -34 -6 -33 -14 -32 151 0 73 4
92 19 107 26 26 164 92 268 128 50 18 99 36 110 41 11 5 61 23 110 40 50 17
97 36 105 40 26 15 39 11 46 -14z"/>
</g>
</svg>
